<svg width="200" height="200" viewBox="0 0 200 200" fill="none" xmlns="http://www.w3.org/2000/svg">
<rect width="200" height="200" rx="100" fill="#DCE000"/>
<path d="M100 115.327C107.655 115.327 113.861 109.121 113.861 101.465C113.861 93.81 107.655 87.604 100 87.604C92.3446 87.604 86.1387 93.81 86.1387 101.465C86.1387 109.121 92.3446 115.327 100 115.327Z" fill="#1B1B1E" stroke="#1B1B1E" stroke-width="1.25" stroke-miterlimit="10"/>
<path d="M106.931 94.5347H96.5347C94.6218 94.5347 93.0693 96.0871 93.0693 98C93.0693 99.9129 94.6218 101.465 96.5347 101.465H103.465C105.378 101.465 106.931 103.018 106.931 104.931C106.931 106.844 105.378 108.396 103.465 108.396H93.0693" fill="#1B1B1E"/>
<path d="M106.931 94.5347H96.5347C94.6218 94.5347 93.0693 96.0871 93.0693 98C93.0693 99.9129 94.6218 101.465 96.5347 101.465H103.465C105.378 101.465 106.931 103.018 106.931 104.931C106.931 106.844 105.378 108.396 103.465 108.396H93.0693" stroke="#DCE000" stroke-width="1.25" stroke-miterlimit="10"/>
<path d="M100 91.0693V94.5347" stroke="#DCE000" stroke-width="1.25" stroke-miterlimit="10"/>
<path d="M100 108.396V111.861" stroke="#DCE000" stroke-width="1.25" stroke-miterlimit="10"/>
<path d="M100 59.8813C77.0346 59.8813 58.416 78.5 58.416 101.466C58.416 124.431 77.0346 143.05 100 143.05C122.966 143.05 141.584 124.431 141.584 101.466C141.584 78.5 122.966 59.8813 100 59.8813ZM100 129.188C84.6889 129.188 72.2774 116.777 72.2774 101.466C72.2774 86.1542 84.6889 73.7427 100 73.7427C115.311 73.7427 127.723 86.1542 127.723 101.466C127.723 116.777 115.311 129.188 100 129.188Z" fill="#1B1B1E" stroke="#1B1B1E" stroke-width="1.25" stroke-miterlimit="10"/>
<path d="M100 59.8813V73.7427C115.311 73.7427 127.723 86.1542 127.723 101.466H141.584C141.584 78.5 122.966 59.8813 100 59.8813Z" fill="#DCE000" stroke="#1B1B1E" stroke-width="1.25" stroke-miterlimit="10"/>
<path d="M119.603 121.068C114.585 126.086 107.655 129.188 100 129.188C92.346 129.188 85.4153 126.086 80.3975 121.068L70.5947 130.871C78.1187 138.395 88.5147 143.049 100 143.049C111.486 143.049 121.879 138.395 129.406 130.871L119.603 121.068V121.068Z" fill="#DCE000" stroke="#1B1B1E" stroke-width="1.25" stroke-miterlimit="10"/>
<path d="M117.152 84.3134L131.853 69.6121C123.703 61.4588 112.439 56.416 100 56.416V77.2081C106.698 77.2081 112.764 79.9222 117.152 84.3134Z" fill="#DCE000" stroke="#1B1B1E" stroke-width="1.25" stroke-miterlimit="10"/>
<path d="M99.9998 120.525C110.526 120.525 119.059 111.991 119.059 101.465C119.059 90.9389 110.526 82.4058 99.9998 82.4058C89.4736 82.4058 80.9404 90.9389 80.9404 101.465C80.9404 111.991 89.4736 120.525 99.9998 120.525Z" stroke="#1B1B1E" stroke-width="1.25" stroke-miterlimit="10"/>
</svg>
