<svg width="200" height="200" viewBox="0 0 200 200" fill="none" xmlns="http://www.w3.org/2000/svg">
<rect width="200" height="200" rx="100" fill="#DCE000"/>
<path d="M119.542 67.7907H80.458L100 41.7345L119.542 67.7907Z" stroke="#1B1B1E" stroke-width="1.25" stroke-miterlimit="10"/>
<path d="M100 110C111.483 110 120.792 100.691 120.792 89.2081C120.792 77.7249 111.483 68.416 100 68.416C88.5169 68.416 79.208 77.7249 79.208 89.2081C79.208 100.691 88.5169 110 100 110Z" stroke="#1B1B1E" stroke-width="1.25" stroke-miterlimit="10"/>
<path d="M100 110V151.584H113.861V130.792C113.861 126.964 116.964 123.861 120.792 123.861C124.621 123.861 127.723 126.964 127.723 130.792V151.584H141.584V110H100Z" stroke="#1B1B1E" stroke-width="1.25" stroke-miterlimit="10"/>
<path d="M58.416 110V151.584H72.2774V130.792C72.2774 126.964 75.3796 123.861 79.2081 123.861C83.0366 123.861 86.1388 126.964 86.1388 130.792V151.584H100V110H58.416Z" stroke="#1B1B1E" stroke-width="1.25" stroke-miterlimit="10"/>
<path d="M141.584 89.208H120.792V110H141.584V89.208Z" stroke="#1B1B1E" stroke-width="1.25" stroke-miterlimit="10"/>
<path d="M79.2081 89.208H58.416V110H79.2081V89.208Z" stroke="#1B1B1E" stroke-width="1.25" stroke-miterlimit="10"/>
<path d="M100 103.069C107.655 103.069 113.861 96.8635 113.861 89.2081C113.861 81.5526 107.655 75.3467 100 75.3467C92.3446 75.3467 86.1387 81.5526 86.1387 89.2081C86.1387 96.8635 92.3446 103.069 100 103.069Z" fill="#1B1B1E" stroke="#1B1B1E" stroke-width="1.25" stroke-miterlimit="10"/>
<path d="M106.931 82.2773H96.5347C94.6218 82.2773 93.0693 83.8298 93.0693 85.7427C93.0693 87.6556 94.6218 89.208 96.5347 89.208H103.465C105.378 89.208 106.931 90.7605 106.931 92.6734C106.931 94.5863 105.378 96.1387 103.465 96.1387H93.0693" fill="#1B1B1E"/>
<path d="M106.931 82.2773H96.5347C94.6218 82.2773 93.0693 83.8298 93.0693 85.7427C93.0693 87.6556 94.6218 89.208 96.5347 89.208H103.465C105.378 89.208 106.931 90.7605 106.931 92.6734C106.931 94.5863 105.378 96.1387 103.465 96.1387H93.0693" stroke="#DCE000" stroke-width="1.25" stroke-miterlimit="10"/>
<path d="M100 78.8115V82.2769" stroke="#DCE000" stroke-width="1.25" stroke-miterlimit="10"/>
<path d="M100 96.1387V99.604" stroke="#DCE000" stroke-width="1.25" stroke-miterlimit="10"/>
<path d="M106.931 82.2773H96.5347C94.6218 82.2773 93.0693 83.8298 93.0693 85.7427C93.0693 87.6556 94.6218 89.208 96.5347 89.208H103.465C105.378 89.208 106.931 90.7605 106.931 92.6734C106.931 94.5863 105.378 96.1387 103.465 96.1387H93.0693" fill="#1B1B1E"/>
<path d="M106.931 82.2773H96.5347C94.6218 82.2773 93.0693 83.8298 93.0693 85.7427C93.0693 87.6556 94.6218 89.208 96.5347 89.208H103.465C105.378 89.208 106.931 90.7605 106.931 92.6734C106.931 94.5863 105.378 96.1387 103.465 96.1387H93.0693" stroke="#DCE000" stroke-width="1.25" stroke-miterlimit="10"/>
<path d="M100 78.812V82.2774" stroke="#DCE000" stroke-width="1.25" stroke-miterlimit="10"/>
<path d="M100 96.1387V99.604" stroke="#DCE000" stroke-width="1.25" stroke-miterlimit="10"/>
<path d="M120.792 123.861C116.964 123.861 113.861 126.964 113.861 130.792V151.584H127.723V130.792C127.723 126.964 124.621 123.861 120.792 123.861Z" fill="#1B1B1E" stroke="#1B1B1E" stroke-width="1.25" stroke-miterlimit="10"/>
<path d="M79.208 123.861C75.3795 123.861 72.2773 126.964 72.2773 130.792V151.584H86.1387V130.792C86.1387 126.964 83.0366 123.861 79.208 123.861Z" fill="#1B1B1E" stroke="#1B1B1E" stroke-width="1.25" stroke-miterlimit="10"/>
<path d="M141.584 89.208V110H120.792" fill="#1B1B1E"/>
<path d="M141.584 89.208V110H120.792" stroke="#1B1B1E" stroke-width="1.25" stroke-miterlimit="10"/>
<path d="M79.2081 89.208V110H58.416" fill="#1B1B1E"/>
<path d="M79.2081 89.208V110H58.416" stroke="#1B1B1E" stroke-width="1.25" stroke-miterlimit="10"/>
</svg>
