<svg width="200" height="200" viewBox="0 0 200 200" fill="none" xmlns="http://www.w3.org/2000/svg">
<rect width="200" height="200" rx="100" fill="#DCE000"/>
<path d="M109.98 148.96L138.279 128.601C140.029 127.342 141.168 125.291 141.168 122.97C141.168 119.142 138.066 116.04 134.237 116.04C132.868 116.04 131.593 116.436 130.517 117.121L99.584 136.832" fill="#1B1B1E"/>
<path d="M109.98 148.96L138.279 128.601C140.029 127.342 141.168 125.291 141.168 122.97C141.168 119.142 138.066 116.04 134.237 116.04C132.868 116.04 131.593 116.436 130.517 117.121L99.584 136.832" stroke="#1B1B1E" stroke-width="1.25" stroke-miterlimit="1"/>
<path d="M104.103 152.425L128.74 127.76C130.262 126.236 131.055 124.026 130.681 121.739C130.063 117.96 126.497 115.402 122.722 116.02C121.372 116.242 120.177 116.838 119.226 117.689L91.8828 142.14" fill="#1B1B1E"/>
<path d="M104.103 152.425L128.74 127.76C130.262 126.236 131.055 124.026 130.681 121.739C130.063 117.96 126.497 115.402 122.722 116.02C121.372 116.242 120.177 116.838 119.226 117.689L91.8828 142.14" stroke="#1B1B1E" stroke-width="1.25" stroke-miterlimit="1"/>
<path d="M71.8613 136.832H127.307" stroke="#1B1B1E" stroke-width="1.25" stroke-miterlimit="10"/>
<path d="M101.317 116.1V102.178C101.317 97.0714 103.773 92.5359 107.566 89.6916L114.469 84.5157C118.106 81.7878 120.737 77.7902 121.701 73.1799C120.734 72.8832 119.705 72.7224 118.641 72.7224C112.899 72.7224 108.245 77.3771 108.245 83.1185C108.245 83.6757 108.289 84.2219 108.372 84.7541L105.486 86.9165C103.881 88.1197 102.47 89.5724 101.314 91.2163V64.0591H97.8488V91.2191C96.6927 89.5751 95.2816 88.1225 93.6765 86.9193L90.7905 84.7569C90.8737 84.2246 90.9181 83.6785 90.9181 83.1213C90.9181 77.3799 86.2634 72.7252 80.522 72.7252C79.4575 72.7252 78.429 72.886 77.4614 73.1826C78.4262 77.7929 81.0571 81.7906 84.6943 84.5185L91.5973 89.6943C95.3925 92.5387 97.846 97.0714 97.846 102.181V116.103C88.9137 116.732 81.3204 122.202 77.661 129.903H121.502C117.842 122.205 110.249 116.735 101.317 116.103V116.1Z" fill="#DCE000" stroke="#1B1B1E" stroke-width="1.25" stroke-miterlimit="10"/>
<path d="M99.584 72.7228C107.239 72.7228 113.445 66.5168 113.445 58.8614C113.445 51.206 107.239 45 99.584 45C91.9286 45 85.7227 51.206 85.7227 58.8614C85.7227 66.5168 91.9286 72.7228 99.584 72.7228Z" fill="#1B1B1E" stroke="#1B1B1E" stroke-width="1.25" stroke-miterlimit="10"/>
<path d="M106.515 51.9307H96.1187C94.2058 51.9307 92.6533 53.4831 92.6533 55.396C92.6533 57.3089 94.2058 58.8614 96.1187 58.8614H103.049C104.962 58.8614 106.515 60.4138 106.515 62.3267C106.515 64.2396 104.962 65.7921 103.049 65.7921H92.6533" fill="#1B1B1E"/>
<path d="M106.515 51.9307H96.1187C94.2058 51.9307 92.6533 53.4831 92.6533 55.396C92.6533 57.3089 94.2058 58.8614 96.1187 58.8614H103.049C104.962 58.8614 106.515 60.4138 106.515 62.3267C106.515 64.2396 104.962 65.7921 103.049 65.7921H92.6533" stroke="#DCE000" stroke-width="1.25" stroke-miterlimit="10"/>
<path d="M99.584 48.4653V51.9307" stroke="#DCE000" stroke-width="1.25" stroke-miterlimit="10"/>
<path d="M99.584 65.792V69.2573" stroke="#DCE000" stroke-width="1.25" stroke-miterlimit="10"/>
<path d="M99.5842 143.762L116.797 134.237C118.932 133.056 120.376 130.779 120.376 128.168C120.376 124.339 117.274 121.237 113.446 121.237C112.908 121.237 112.387 121.298 111.885 121.415L79.4796 128.875C67.1735 131.705 58 142.728 58 155.891H99.5842C102.32 155.891 104.874 155.098 107.022 153.728L137.955 134.018C139.885 132.787 141.166 130.627 141.166 128.168C141.166 124.339 138.063 121.237 134.235 121.237C132.865 121.237 131.59 121.634 130.514 122.318L120.343 128.8" fill="#DCE000"/>
<path d="M99.5842 143.762L116.797 134.237C118.932 133.056 120.376 130.779 120.376 128.168C120.376 124.339 117.274 121.237 113.446 121.237C112.908 121.237 112.387 121.298 111.885 121.415L79.4796 128.875C67.1735 131.705 58 142.728 58 155.891H99.5842C102.32 155.891 104.874 155.098 107.022 153.728L137.955 134.018C139.885 132.787 141.166 130.627 141.166 128.168C141.166 124.339 138.063 121.237 134.235 121.237C132.865 121.237 131.59 121.634 130.514 122.318L120.343 128.8" stroke="#1B1B1E" stroke-width="1.25" stroke-miterlimit="10"/>
</svg>
