<svg width="200" height="200" viewBox="0 0 200 200" fill="none" xmlns="http://www.w3.org/2000/svg">
<rect width="200" height="200" rx="100" fill="#DCE000"/>
<path d="M135.277 115.277V78.5703C135.277 73.2351 130.952 68.9106 125.617 68.9106C120.282 68.9106 115.958 73.2351 115.958 78.5703V99.8214" fill="#DCE000"/>
<path d="M135.277 115.277V78.5703C135.277 73.2351 130.952 68.9106 125.617 68.9106C120.282 68.9106 115.958 73.2351 115.958 78.5703V99.8214" stroke="#1B1B1E" stroke-width="1.25" stroke-miterlimit="10"/>
<path d="M115.958 161.643H77.3192C66.6488 161.643 58 152.994 58 142.324V113.345H115.958" fill="#1B1B1E"/>
<path d="M115.958 161.643H77.3192C66.6488 161.643 58 152.994 58 142.324V113.345H115.958" stroke="#1B1B1E" stroke-width="1.25" stroke-miterlimit="1"/>
<path d="M86.9785 94.0254C81.6433 94.0254 77.3188 98.3498 77.3188 103.685V124.936C77.3188 130.271 81.6433 134.596 86.9785 134.596C92.3137 134.596 96.6381 130.271 96.6381 124.936V103.685C96.6381 98.3498 92.3137 94.0254 86.9785 94.0254Z" fill="#DCE000" stroke="#1B1B1E" stroke-width="1.25" stroke-miterlimit="10"/>
<path d="M67.6596 97.8892C62.3244 97.8892 58 102.214 58 107.549V124.936C58 130.271 62.3244 134.596 67.6596 134.596C72.9948 134.596 77.3192 130.271 77.3192 124.936V107.549C77.3192 102.214 72.9948 97.8892 67.6596 97.8892Z" fill="#DCE000" stroke="#1B1B1E" stroke-width="1.25" stroke-miterlimit="10"/>
<path d="M106.298 92.0938C100.963 92.0938 96.6382 96.4182 96.6382 101.753V123.005C96.6382 128.34 100.963 132.664 106.298 132.664C111.633 132.664 115.957 128.34 115.957 123.005V101.753C115.957 96.4182 111.633 92.0938 106.298 92.0938Z" fill="#DCE000" stroke="#1B1B1E" stroke-width="1.25" stroke-miterlimit="10"/>
<path d="M101.451 129.567C98.456 132.97 96.6384 137.437 96.6384 142.324C96.6384 152.994 105.287 161.643 115.958 161.643C126.628 161.643 135.277 152.994 135.277 142.324V115.277C135.277 106.742 128.356 99.8213 119.821 99.8213H94.7065C89.3713 99.8213 85.0469 104.146 85.0469 109.481C85.0469 114.816 89.3713 119.141 94.7065 119.141H110.626L101.451 129.567Z" fill="#DCE000" stroke="#1B1B1E" stroke-width="1.25" stroke-miterlimit="10"/>
<path d="M125.617 68.9108C134.153 68.9108 141.072 61.9912 141.072 53.4554C141.072 44.9196 134.153 38 125.617 38C117.081 38 110.162 44.9196 110.162 53.4554C110.162 61.9912 117.081 68.9108 125.617 68.9108Z" fill="#1B1B1E" stroke="#1B1B1E" stroke-width="1.25" stroke-miterlimit="10"/>
<path d="M133.345 45.7275H121.753C119.62 45.7275 117.889 47.4585 117.889 49.5914C117.889 51.7242 119.62 53.4552 121.753 53.4552H129.481C131.614 53.4552 133.345 55.1862 133.345 57.3191C133.345 59.4519 131.614 61.1829 129.481 61.1829H117.889" fill="#1B1B1E"/>
<path d="M133.345 45.7275H121.753C119.62 45.7275 117.889 47.4585 117.889 49.5914C117.889 51.7242 119.62 53.4552 121.753 53.4552H129.481C131.614 53.4552 133.345 55.1862 133.345 57.3191C133.345 59.4519 131.614 61.1829 129.481 61.1829H117.889" stroke="#DCE000" stroke-width="1.25" stroke-miterlimit="10"/>
<path d="M125.617 41.8638V45.7276" stroke="#DCE000" stroke-width="1.25" stroke-miterlimit="10"/>
<path d="M125.617 61.1831V65.047" stroke="#DCE000" stroke-width="1.25" stroke-miterlimit="10"/>
</svg>
