<svg width="200" height="200" viewBox="0 0 200 200" fill="none" xmlns="http://www.w3.org/2000/svg">
<rect width="200" height="200" rx="100" fill="#DCE000"/>
<path d="M141.584 44.416H72.2773V141.446H141.584V44.416Z" fill="#DCE000" stroke="#1B1B1E" stroke-width="1.25" stroke-miterlimit="10"/>
<path d="M98.2675 155.307C103.052 155.307 106.931 151.429 106.931 146.644V86H58.416V146.644C58.416 151.429 62.2944 155.307 67.0794 155.307H98.2675Z" fill="#DCE000" stroke="#1B1B1E" stroke-width="1.25" stroke-miterlimit="10"/>
<path d="M101.733 91.1982H63.6138V106.792H101.733V91.1982Z" fill="#1B1B1E" stroke="#1B1B1E" stroke-width="1.25" stroke-miterlimit="10"/>
<path d="M67.0791 118.921C68.993 118.921 70.5445 117.369 70.5445 115.456C70.5445 113.542 68.993 111.99 67.0791 111.99C65.1653 111.99 63.6138 113.542 63.6138 115.456C63.6138 117.369 65.1653 118.921 67.0791 118.921Z" fill="#DCE000" stroke="#1B1B1E" stroke-width="1.25" stroke-miterlimit="10"/>
<path d="M77.4751 118.921C79.389 118.921 80.9405 117.369 80.9405 115.456C80.9405 113.542 79.389 111.99 77.4751 111.99C75.5613 111.99 74.0098 113.542 74.0098 115.456C74.0098 117.369 75.5613 118.921 77.4751 118.921Z" fill="#1B1B1E" stroke="#1B1B1E" stroke-width="1.25" stroke-miterlimit="10"/>
<path d="M87.8711 118.921C89.785 118.921 91.3365 117.369 91.3365 115.456C91.3365 113.542 89.785 111.99 87.8711 111.99C85.9573 111.99 84.4058 113.542 84.4058 115.456C84.4058 117.369 85.9573 118.921 87.8711 118.921Z" fill="#DCE000" stroke="#1B1B1E" stroke-width="1.25" stroke-miterlimit="10"/>
<path d="M98.2671 118.921C100.181 118.921 101.732 117.369 101.732 115.456C101.732 113.542 100.181 111.99 98.2671 111.99C96.3532 111.99 94.8018 113.542 94.8018 115.456C94.8018 117.369 96.3532 118.921 98.2671 118.921Z" fill="#1B1B1E" stroke="#1B1B1E" stroke-width="1.25" stroke-miterlimit="10"/>
<path d="M67.0791 129.317C68.993 129.317 70.5445 127.765 70.5445 125.852C70.5445 123.938 68.993 122.386 67.0791 122.386C65.1653 122.386 63.6138 123.938 63.6138 125.852C63.6138 127.765 65.1653 129.317 67.0791 129.317Z" fill="#1B1B1E" stroke="#1B1B1E" stroke-width="1.25" stroke-miterlimit="10"/>
<path d="M77.4751 129.317C79.389 129.317 80.9405 127.765 80.9405 125.852C80.9405 123.938 79.389 122.386 77.4751 122.386C75.5613 122.386 74.0098 123.938 74.0098 125.852C74.0098 127.765 75.5613 129.317 77.4751 129.317Z" fill="#DCE000" stroke="#1B1B1E" stroke-width="1.25" stroke-miterlimit="10"/>
<path d="M87.8711 129.317C89.785 129.317 91.3365 127.765 91.3365 125.852C91.3365 123.938 89.785 122.386 87.8711 122.386C85.9573 122.386 84.4058 123.938 84.4058 125.852C84.4058 127.765 85.9573 129.317 87.8711 129.317Z" fill="#1B1B1E" stroke="#1B1B1E" stroke-width="1.25" stroke-miterlimit="10"/>
<path d="M98.2671 129.317C100.181 129.317 101.732 127.765 101.732 125.852C101.732 123.938 100.181 122.386 98.2671 122.386C96.3532 122.386 94.8018 123.938 94.8018 125.852C94.8018 127.765 96.3532 129.317 98.2671 129.317Z" fill="#DCE000" stroke="#1B1B1E" stroke-width="1.25" stroke-miterlimit="10"/>
<path d="M67.0791 139.713C68.993 139.713 70.5445 138.161 70.5445 136.248C70.5445 134.334 68.993 132.782 67.0791 132.782C65.1653 132.782 63.6138 134.334 63.6138 136.248C63.6138 138.161 65.1653 139.713 67.0791 139.713Z" fill="#DCE000" stroke="#1B1B1E" stroke-width="1.25" stroke-miterlimit="10"/>
<path d="M77.4751 139.713C79.389 139.713 80.9405 138.161 80.9405 136.248C80.9405 134.334 79.389 132.782 77.4751 132.782C75.5613 132.782 74.0098 134.334 74.0098 136.248C74.0098 138.161 75.5613 139.713 77.4751 139.713Z" fill="#1B1B1E" stroke="#1B1B1E" stroke-width="1.25" stroke-miterlimit="10"/>
<path d="M87.8711 139.713C89.785 139.713 91.3365 138.161 91.3365 136.248C91.3365 134.334 89.785 132.782 87.8711 132.782C85.9573 132.782 84.4058 134.334 84.4058 136.248C84.4058 138.161 85.9573 139.713 87.8711 139.713Z" fill="#DCE000" stroke="#1B1B1E" stroke-width="1.25" stroke-miterlimit="10"/>
<path d="M98.2671 139.713C100.181 139.713 101.732 138.161 101.732 136.248C101.732 134.334 100.181 132.782 98.2671 132.782C96.3532 132.782 94.8018 134.334 94.8018 136.248C94.8018 138.161 96.3532 139.713 98.2671 139.713Z" fill="#1B1B1E" stroke="#1B1B1E" stroke-width="1.25" stroke-miterlimit="10"/>
<path d="M67.0791 150.109C68.993 150.109 70.5445 148.557 70.5445 146.644C70.5445 144.73 68.993 143.178 67.0791 143.178C65.1653 143.178 63.6138 144.73 63.6138 146.644C63.6138 148.557 65.1653 150.109 67.0791 150.109Z" fill="#1B1B1E" stroke="#1B1B1E" stroke-width="1.25" stroke-miterlimit="10"/>
<path d="M77.4751 150.109C79.389 150.109 80.9405 148.557 80.9405 146.644C80.9405 144.73 79.389 143.178 77.4751 143.178C75.5613 143.178 74.0098 144.73 74.0098 146.644C74.0098 148.557 75.5613 150.109 77.4751 150.109Z" fill="#DCE000" stroke="#1B1B1E" stroke-width="1.25" stroke-miterlimit="10"/>
<path d="M87.8711 150.109C89.785 150.109 91.3365 148.557 91.3365 146.644C91.3365 144.73 89.785 143.178 87.8711 143.178C85.9573 143.178 84.4058 144.73 84.4058 146.644C84.4058 148.557 85.9573 150.109 87.8711 150.109Z" fill="#1B1B1E" stroke="#1B1B1E" stroke-width="1.25" stroke-miterlimit="10"/>
<path d="M98.2671 150.109C100.181 150.109 101.732 148.557 101.732 146.644C101.732 144.73 100.181 143.178 98.2671 143.178C96.3532 143.178 94.8018 144.73 94.8018 146.644C94.8018 148.557 96.3532 150.109 98.2671 150.109Z" fill="#DCE000" stroke="#1B1B1E" stroke-width="1.25" stroke-miterlimit="10"/>
<path d="M106.931 86H134.653" stroke="#1B1B1E" stroke-width="1.25" stroke-miterlimit="10"/>
<path d="M106.931 92.9307H134.653" stroke="#1B1B1E" stroke-width="1.25" stroke-miterlimit="10"/>
<path d="M106.931 99.8613H134.653" stroke="#1B1B1E" stroke-width="1.25" stroke-miterlimit="10"/>
<path d="M106.931 106.792H134.653" stroke="#1B1B1E" stroke-width="1.25" stroke-miterlimit="10"/>
<path d="M106.931 113.723H134.653" stroke="#1B1B1E" stroke-width="1.25" stroke-miterlimit="10"/>
<path d="M106.931 120.653H134.653" stroke="#1B1B1E" stroke-width="1.25" stroke-miterlimit="10"/>
<path d="M78.9111 58.2773H99.7032" stroke="#1B1B1E" stroke-width="1.25" stroke-miterlimit="10"/>
<path d="M78.9111 65.208H99.7032" stroke="#1B1B1E" stroke-width="1.25" stroke-miterlimit="10"/>
<path d="M78.9111 72.1387H99.7032" stroke="#1B1B1E" stroke-width="1.25" stroke-miterlimit="10"/>
<path d="M78.9111 79.0693H99.7032" stroke="#1B1B1E" stroke-width="1.25" stroke-miterlimit="10"/>
<path d="M78.9111 51.3467H99.7032" stroke="#1B1B1E" stroke-width="1.25" stroke-miterlimit="10"/>
<path d="M106.931 127.584H134.653" stroke="#1B1B1E" stroke-width="1.25" stroke-miterlimit="10"/>
<path d="M106.931 134.515H134.653" stroke="#1B1B1E" stroke-width="1.25" stroke-miterlimit="10"/>
<path d="M120.496 79.0695C128.151 79.0695 134.357 72.8635 134.357 65.2081C134.357 57.5526 128.151 51.3467 120.496 51.3467C112.84 51.3467 106.634 57.5526 106.634 65.2081C106.634 72.8635 112.84 79.0695 120.496 79.0695Z" fill="#1B1B1E" stroke="#1B1B1E" stroke-width="1.25" stroke-miterlimit="10"/>
<path d="M127.426 58.2773H117.03C115.117 58.2773 113.565 59.8298 113.565 61.7427C113.565 63.6556 115.117 65.208 117.03 65.208H123.961C125.874 65.208 127.426 66.7605 127.426 68.6734C127.426 70.5863 125.874 72.1387 123.961 72.1387H113.565" fill="#1B1B1E"/>
<path d="M127.426 58.2773H117.03C115.117 58.2773 113.565 59.8298 113.565 61.7427C113.565 63.6556 115.117 65.208 117.03 65.208H123.961C125.874 65.208 127.426 66.7605 127.426 68.6734C127.426 70.5863 125.874 72.1387 123.961 72.1387H113.565" stroke="#DCE000" stroke-width="1.25" stroke-miterlimit="10"/>
<path d="M120.496 54.812V58.2774" stroke="#DCE000" stroke-width="1.25" stroke-miterlimit="10"/>
<path d="M120.496 72.1387V75.604" stroke="#DCE000" stroke-width="1.25" stroke-miterlimit="10"/>
</svg>
